<mxfile host="app.diagrams.net" agent="Mozilla/5.0 (Windows NT 10.0; Win64; x64) AppleWebKit/537.36 (KHTML, like Gecko) Chrome/134.0.0.0 Safari/537.36" version="26.2.14">
  <diagram name="Pagina-1" id="rNfZt7lDejeNnbPVhK9Z">
    <mxGraphModel dx="1126" dy="825" grid="1" gridSize="10" guides="1" tooltips="1" connect="1" arrows="1" fold="1" page="1" pageScale="1" pageWidth="827" pageHeight="1169" math="0" shadow="0">
      <root>
        <mxCell id="0" />
        <mxCell id="1" parent="0" />
        <mxCell id="FdLYJ41Y6fqoRRBc2pLX-31" value="" style="edgeStyle=none;rounded=0;orthogonalLoop=1;jettySize=auto;html=1;" edge="1" parent="1" source="FdLYJ41Y6fqoRRBc2pLX-1" target="FdLYJ41Y6fqoRRBc2pLX-30">
          <mxGeometry relative="1" as="geometry" />
        </mxCell>
        <mxCell id="FdLYJ41Y6fqoRRBc2pLX-1" value="studenti" style="whiteSpace=wrap;html=1;align=center;" vertex="1" parent="1">
          <mxGeometry x="300" y="260" width="200" height="70" as="geometry" />
        </mxCell>
        <mxCell id="FdLYJ41Y6fqoRRBc2pLX-10" style="edgeStyle=none;rounded=0;orthogonalLoop=1;jettySize=auto;html=1;exitX=0.5;exitY=1;exitDx=0;exitDy=0;" edge="1" parent="1" source="FdLYJ41Y6fqoRRBc2pLX-3" target="FdLYJ41Y6fqoRRBc2pLX-1">
          <mxGeometry relative="1" as="geometry" />
        </mxCell>
        <mxCell id="FdLYJ41Y6fqoRRBc2pLX-3" value="id studente" style="ellipse;whiteSpace=wrap;html=1;align=center;" vertex="1" parent="1">
          <mxGeometry x="340" y="120" width="110" height="50" as="geometry" />
        </mxCell>
        <mxCell id="FdLYJ41Y6fqoRRBc2pLX-4" value="nome completo" style="ellipse;whiteSpace=wrap;html=1;align=center;" vertex="1" parent="1">
          <mxGeometry x="490" y="150" width="110" height="50" as="geometry" />
        </mxCell>
        <mxCell id="FdLYJ41Y6fqoRRBc2pLX-5" value="nome completo" style="ellipse;whiteSpace=wrap;html=1;align=center;" vertex="1" parent="1">
          <mxGeometry x="150" y="150" width="110" height="50" as="geometry" />
        </mxCell>
        <mxCell id="FdLYJ41Y6fqoRRBc2pLX-8" style="edgeStyle=none;rounded=0;orthogonalLoop=1;jettySize=auto;html=1;exitX=1;exitY=0.5;exitDx=0;exitDy=0;" edge="1" parent="1" source="FdLYJ41Y6fqoRRBc2pLX-6" target="FdLYJ41Y6fqoRRBc2pLX-1">
          <mxGeometry relative="1" as="geometry" />
        </mxCell>
        <mxCell id="FdLYJ41Y6fqoRRBc2pLX-6" value="residenza" style="ellipse;whiteSpace=wrap;html=1;align=center;" vertex="1" parent="1">
          <mxGeometry x="120" y="270" width="110" height="50" as="geometry" />
        </mxCell>
        <mxCell id="FdLYJ41Y6fqoRRBc2pLX-12" style="edgeStyle=none;rounded=0;orthogonalLoop=1;jettySize=auto;html=1;exitX=0;exitY=0.5;exitDx=0;exitDy=0;" edge="1" parent="1" source="FdLYJ41Y6fqoRRBc2pLX-7" target="FdLYJ41Y6fqoRRBc2pLX-1">
          <mxGeometry relative="1" as="geometry" />
        </mxCell>
        <mxCell id="FdLYJ41Y6fqoRRBc2pLX-7" value="titolo di studio" style="ellipse;whiteSpace=wrap;html=1;align=center;fillColor=#60a917;fontColor=#ffffff;strokeColor=#2D7600;" vertex="1" parent="1">
          <mxGeometry x="570" y="270" width="110" height="50" as="geometry" />
        </mxCell>
        <mxCell id="FdLYJ41Y6fqoRRBc2pLX-9" style="edgeStyle=none;rounded=0;orthogonalLoop=1;jettySize=auto;html=1;exitX=1;exitY=0.5;exitDx=0;exitDy=0;entryX=0.036;entryY=0.023;entryDx=0;entryDy=0;entryPerimeter=0;" edge="1" parent="1" source="FdLYJ41Y6fqoRRBc2pLX-5" target="FdLYJ41Y6fqoRRBc2pLX-1">
          <mxGeometry relative="1" as="geometry" />
        </mxCell>
        <mxCell id="FdLYJ41Y6fqoRRBc2pLX-11" style="edgeStyle=none;rounded=0;orthogonalLoop=1;jettySize=auto;html=1;exitX=0.5;exitY=1;exitDx=0;exitDy=0;entryX=0.914;entryY=0.029;entryDx=0;entryDy=0;entryPerimeter=0;" edge="1" parent="1" source="FdLYJ41Y6fqoRRBc2pLX-4" target="FdLYJ41Y6fqoRRBc2pLX-1">
          <mxGeometry relative="1" as="geometry" />
        </mxCell>
        <mxCell id="FdLYJ41Y6fqoRRBc2pLX-13" value="materia" style="whiteSpace=wrap;html=1;align=center;" vertex="1" parent="1">
          <mxGeometry x="295" y="670" width="200" height="70" as="geometry" />
        </mxCell>
        <mxCell id="FdLYJ41Y6fqoRRBc2pLX-19" style="edgeStyle=none;rounded=0;orthogonalLoop=1;jettySize=auto;html=1;exitX=0.5;exitY=1;exitDx=0;exitDy=0;entryX=0.5;entryY=0;entryDx=0;entryDy=0;" edge="1" parent="1" source="FdLYJ41Y6fqoRRBc2pLX-14" target="FdLYJ41Y6fqoRRBc2pLX-13">
          <mxGeometry relative="1" as="geometry" />
        </mxCell>
        <mxCell id="FdLYJ41Y6fqoRRBc2pLX-14" value="n.ore" style="ellipse;whiteSpace=wrap;html=1;align=center;" vertex="1" parent="1">
          <mxGeometry x="515" y="510" width="110" height="60" as="geometry" />
        </mxCell>
        <mxCell id="FdLYJ41Y6fqoRRBc2pLX-24" style="edgeStyle=none;rounded=0;orthogonalLoop=1;jettySize=auto;html=1;exitX=0;exitY=0.5;exitDx=0;exitDy=0;" edge="1" parent="1" source="FdLYJ41Y6fqoRRBc2pLX-15" target="FdLYJ41Y6fqoRRBc2pLX-13">
          <mxGeometry relative="1" as="geometry" />
        </mxCell>
        <mxCell id="FdLYJ41Y6fqoRRBc2pLX-15" value="docente" style="ellipse;whiteSpace=wrap;html=1;align=center;" vertex="1" parent="1">
          <mxGeometry x="560" y="620" width="110" height="50" as="geometry" />
        </mxCell>
        <mxCell id="FdLYJ41Y6fqoRRBc2pLX-20" style="edgeStyle=none;rounded=0;orthogonalLoop=1;jettySize=auto;html=1;exitX=1;exitY=0.5;exitDx=0;exitDy=0;" edge="1" parent="1" source="FdLYJ41Y6fqoRRBc2pLX-16" target="FdLYJ41Y6fqoRRBc2pLX-13">
          <mxGeometry relative="1" as="geometry" />
        </mxCell>
        <mxCell id="FdLYJ41Y6fqoRRBc2pLX-16" value="corso" style="ellipse;whiteSpace=wrap;html=1;align=center;" vertex="1" parent="1">
          <mxGeometry x="130" y="580" width="110" height="50" as="geometry" />
        </mxCell>
        <mxCell id="FdLYJ41Y6fqoRRBc2pLX-21" value="" style="edgeStyle=none;rounded=0;orthogonalLoop=1;jettySize=auto;html=1;" edge="1" parent="1" source="FdLYJ41Y6fqoRRBc2pLX-17" target="FdLYJ41Y6fqoRRBc2pLX-13">
          <mxGeometry relative="1" as="geometry" />
        </mxCell>
        <mxCell id="FdLYJ41Y6fqoRRBc2pLX-17" value="anno" style="ellipse;whiteSpace=wrap;html=1;align=center;" vertex="1" parent="1">
          <mxGeometry x="70" y="680" width="110" height="50" as="geometry" />
        </mxCell>
        <mxCell id="FdLYJ41Y6fqoRRBc2pLX-22" value="" style="edgeStyle=none;rounded=0;orthogonalLoop=1;jettySize=auto;html=1;" edge="1" parent="1" source="FdLYJ41Y6fqoRRBc2pLX-18" target="FdLYJ41Y6fqoRRBc2pLX-13">
          <mxGeometry relative="1" as="geometry" />
        </mxCell>
        <mxCell id="FdLYJ41Y6fqoRRBc2pLX-18" value="id materia" style="ellipse;whiteSpace=wrap;html=1;align=center;fillColor=#60a917;fontColor=#ffffff;strokeColor=#2D7600;" vertex="1" parent="1">
          <mxGeometry x="550" y="690" width="110" height="50" as="geometry" />
        </mxCell>
        <mxCell id="FdLYJ41Y6fqoRRBc2pLX-26" value="" style="edgeStyle=none;rounded=0;orthogonalLoop=1;jettySize=auto;html=1;" edge="1" parent="1" source="FdLYJ41Y6fqoRRBc2pLX-25" target="FdLYJ41Y6fqoRRBc2pLX-18">
          <mxGeometry relative="1" as="geometry" />
        </mxCell>
        <mxCell id="FdLYJ41Y6fqoRRBc2pLX-25" value="identifica unicamente la materia" style="text;html=1;align=center;verticalAlign=middle;whiteSpace=wrap;rounded=0;" vertex="1" parent="1">
          <mxGeometry x="680" y="660" width="110" height="40" as="geometry" />
        </mxCell>
        <mxCell id="FdLYJ41Y6fqoRRBc2pLX-28" value="" style="edgeStyle=none;rounded=0;orthogonalLoop=1;jettySize=auto;html=1;" edge="1" parent="1" source="FdLYJ41Y6fqoRRBc2pLX-27" target="FdLYJ41Y6fqoRRBc2pLX-7">
          <mxGeometry relative="1" as="geometry" />
        </mxCell>
        <mxCell id="FdLYJ41Y6fqoRRBc2pLX-27" value="identifica unicamente lo studio" style="text;html=1;align=center;verticalAlign=middle;whiteSpace=wrap;rounded=0;" vertex="1" parent="1">
          <mxGeometry x="710" y="270" width="110" height="40" as="geometry" />
        </mxCell>
        <mxCell id="FdLYJ41Y6fqoRRBc2pLX-100" style="edgeStyle=none;rounded=0;orthogonalLoop=1;jettySize=auto;html=1;exitX=0.5;exitY=1;exitDx=0;exitDy=0;" edge="1" parent="1" source="FdLYJ41Y6fqoRRBc2pLX-30" target="FdLYJ41Y6fqoRRBc2pLX-13">
          <mxGeometry relative="1" as="geometry" />
        </mxCell>
        <mxCell id="FdLYJ41Y6fqoRRBc2pLX-30" value="studio della materia" style="rhombus;whiteSpace=wrap;html=1;fillColor=light-dark(#FFFFFF,#007FFF);" vertex="1" parent="1">
          <mxGeometry x="300" y="390" width="190" height="80" as="geometry" />
        </mxCell>
        <mxCell id="FdLYJ41Y6fqoRRBc2pLX-50" style="edgeStyle=none;rounded=0;orthogonalLoop=1;jettySize=auto;html=1;exitX=0.5;exitY=0;exitDx=0;exitDy=0;" edge="1" parent="1" source="FdLYJ41Y6fqoRRBc2pLX-33" target="FdLYJ41Y6fqoRRBc2pLX-49">
          <mxGeometry relative="1" as="geometry" />
        </mxCell>
        <mxCell id="FdLYJ41Y6fqoRRBc2pLX-33" value="tutor" style="rounded=0;whiteSpace=wrap;html=1;" vertex="1" parent="1">
          <mxGeometry x="740" y="895" width="170" height="55" as="geometry" />
        </mxCell>
        <mxCell id="FdLYJ41Y6fqoRRBc2pLX-40" style="edgeStyle=none;rounded=0;orthogonalLoop=1;jettySize=auto;html=1;exitX=1;exitY=0.5;exitDx=0;exitDy=0;" edge="1" parent="1" source="FdLYJ41Y6fqoRRBc2pLX-34" target="FdLYJ41Y6fqoRRBc2pLX-33">
          <mxGeometry relative="1" as="geometry" />
        </mxCell>
        <mxCell id="FdLYJ41Y6fqoRRBc2pLX-34" value="nome cognome" style="ellipse;whiteSpace=wrap;html=1;align=center;" vertex="1" parent="1">
          <mxGeometry x="997" y="875" width="110" height="50" as="geometry" />
        </mxCell>
        <mxCell id="FdLYJ41Y6fqoRRBc2pLX-39" style="edgeStyle=none;rounded=0;orthogonalLoop=1;jettySize=auto;html=1;exitX=1;exitY=0.5;exitDx=0;exitDy=0;" edge="1" parent="1" source="FdLYJ41Y6fqoRRBc2pLX-35" target="FdLYJ41Y6fqoRRBc2pLX-33">
          <mxGeometry relative="1" as="geometry" />
        </mxCell>
        <mxCell id="FdLYJ41Y6fqoRRBc2pLX-35" value="data di nascita" style="ellipse;whiteSpace=wrap;html=1;align=center;" vertex="1" parent="1">
          <mxGeometry x="987" y="955" width="110" height="50" as="geometry" />
        </mxCell>
        <mxCell id="FdLYJ41Y6fqoRRBc2pLX-38" style="edgeStyle=none;rounded=0;orthogonalLoop=1;jettySize=auto;html=1;exitX=1;exitY=0.5;exitDx=0;exitDy=0;" edge="1" parent="1" source="FdLYJ41Y6fqoRRBc2pLX-36" target="FdLYJ41Y6fqoRRBc2pLX-33">
          <mxGeometry relative="1" as="geometry" />
        </mxCell>
        <mxCell id="FdLYJ41Y6fqoRRBc2pLX-36" value="cf tutor" style="ellipse;whiteSpace=wrap;html=1;align=center;fillColor=#60a917;fontColor=#ffffff;strokeColor=#2D7600;" vertex="1" parent="1">
          <mxGeometry x="927" y="1025" width="110" height="50" as="geometry" />
        </mxCell>
        <mxCell id="FdLYJ41Y6fqoRRBc2pLX-47" style="edgeStyle=none;rounded=0;orthogonalLoop=1;jettySize=auto;html=1;exitX=0;exitY=0.5;exitDx=0;exitDy=0;" edge="1" parent="1" source="FdLYJ41Y6fqoRRBc2pLX-41" target="FdLYJ41Y6fqoRRBc2pLX-46">
          <mxGeometry relative="1" as="geometry" />
        </mxCell>
        <mxCell id="FdLYJ41Y6fqoRRBc2pLX-41" value="corso di studi" style="whiteSpace=wrap;html=1;align=center;" vertex="1" parent="1">
          <mxGeometry x="820" y="320" width="200" height="70" as="geometry" />
        </mxCell>
        <mxCell id="FdLYJ41Y6fqoRRBc2pLX-44" style="edgeStyle=none;rounded=0;orthogonalLoop=1;jettySize=auto;html=1;exitX=0;exitY=0.5;exitDx=0;exitDy=0;" edge="1" parent="1" source="FdLYJ41Y6fqoRRBc2pLX-42" target="FdLYJ41Y6fqoRRBc2pLX-41">
          <mxGeometry relative="1" as="geometry" />
        </mxCell>
        <mxCell id="FdLYJ41Y6fqoRRBc2pLX-42" value="nome corso" style="ellipse;whiteSpace=wrap;html=1;align=center;" vertex="1" parent="1">
          <mxGeometry x="1060" y="290" width="110" height="50" as="geometry" />
        </mxCell>
        <mxCell id="FdLYJ41Y6fqoRRBc2pLX-43" value="codice corso" style="ellipse;whiteSpace=wrap;html=1;align=center;fillColor=#60a917;fontColor=#ffffff;strokeColor=#2D7600;" vertex="1" parent="1">
          <mxGeometry x="1107" y="370" width="110" height="50" as="geometry" />
        </mxCell>
        <mxCell id="FdLYJ41Y6fqoRRBc2pLX-45" style="edgeStyle=none;rounded=0;orthogonalLoop=1;jettySize=auto;html=1;exitX=0;exitY=0.5;exitDx=0;exitDy=0;entryX=0.657;entryY=0.993;entryDx=0;entryDy=0;entryPerimeter=0;" edge="1" parent="1" source="FdLYJ41Y6fqoRRBc2pLX-43" target="FdLYJ41Y6fqoRRBc2pLX-41">
          <mxGeometry relative="1" as="geometry" />
        </mxCell>
        <mxCell id="FdLYJ41Y6fqoRRBc2pLX-46" value="si iscrivono" style="rhombus;whiteSpace=wrap;html=1;fillColor=light-dark(#FFFFFF,#0066CC);" vertex="1" parent="1">
          <mxGeometry x="510" y="350" width="190" height="80" as="geometry" />
        </mxCell>
        <mxCell id="FdLYJ41Y6fqoRRBc2pLX-48" style="edgeStyle=none;rounded=0;orthogonalLoop=1;jettySize=auto;html=1;exitX=0;exitY=0;exitDx=0;exitDy=0;entryX=0.803;entryY=0.95;entryDx=0;entryDy=0;entryPerimeter=0;" edge="1" parent="1" source="FdLYJ41Y6fqoRRBc2pLX-46" target="FdLYJ41Y6fqoRRBc2pLX-1">
          <mxGeometry relative="1" as="geometry" />
        </mxCell>
        <mxCell id="FdLYJ41Y6fqoRRBc2pLX-49" value="gestisce" style="rhombus;whiteSpace=wrap;html=1;fillColor=light-dark(#FFFFFF,#007FFF);" vertex="1" parent="1">
          <mxGeometry x="720" y="760" width="190" height="80" as="geometry" />
        </mxCell>
        <mxCell id="FdLYJ41Y6fqoRRBc2pLX-51" value="docenti" style="whiteSpace=wrap;html=1;align=center;" vertex="1" parent="1">
          <mxGeometry x="300" y="1020" width="200" height="70" as="geometry" />
        </mxCell>
        <mxCell id="FdLYJ41Y6fqoRRBc2pLX-57" style="edgeStyle=none;rounded=0;orthogonalLoop=1;jettySize=auto;html=1;exitX=0;exitY=0.5;exitDx=0;exitDy=0;" edge="1" parent="1" source="FdLYJ41Y6fqoRRBc2pLX-52" target="FdLYJ41Y6fqoRRBc2pLX-51">
          <mxGeometry relative="1" as="geometry" />
        </mxCell>
        <mxCell id="FdLYJ41Y6fqoRRBc2pLX-52" value="cf docente" style="ellipse;whiteSpace=wrap;html=1;align=center;fillColor=#60a917;fontColor=#ffffff;strokeColor=#2D7600;" vertex="1" parent="1">
          <mxGeometry x="580" y="1060" width="110" height="50" as="geometry" />
        </mxCell>
        <mxCell id="FdLYJ41Y6fqoRRBc2pLX-56" style="edgeStyle=none;rounded=0;orthogonalLoop=1;jettySize=auto;html=1;exitX=0;exitY=0;exitDx=0;exitDy=0;" edge="1" parent="1" source="FdLYJ41Y6fqoRRBc2pLX-53" target="FdLYJ41Y6fqoRRBc2pLX-51">
          <mxGeometry relative="1" as="geometry" />
        </mxCell>
        <mxCell id="FdLYJ41Y6fqoRRBc2pLX-53" value="nome completo" style="ellipse;whiteSpace=wrap;html=1;align=center;" vertex="1" parent="1">
          <mxGeometry x="540" y="1160" width="110" height="50" as="geometry" />
        </mxCell>
        <mxCell id="FdLYJ41Y6fqoRRBc2pLX-55" style="edgeStyle=none;rounded=0;orthogonalLoop=1;jettySize=auto;html=1;exitX=0.5;exitY=0;exitDx=0;exitDy=0;" edge="1" parent="1" source="FdLYJ41Y6fqoRRBc2pLX-54" target="FdLYJ41Y6fqoRRBc2pLX-51">
          <mxGeometry relative="1" as="geometry" />
        </mxCell>
        <mxCell id="FdLYJ41Y6fqoRRBc2pLX-54" value="azienda" style="ellipse;whiteSpace=wrap;html=1;align=center;" vertex="1" parent="1">
          <mxGeometry x="350" y="1170" width="110" height="50" as="geometry" />
        </mxCell>
        <mxCell id="FdLYJ41Y6fqoRRBc2pLX-59" style="edgeStyle=none;rounded=0;orthogonalLoop=1;jettySize=auto;html=1;exitX=0.5;exitY=0;exitDx=0;exitDy=0;entryX=0.5;entryY=1;entryDx=0;entryDy=0;" edge="1" parent="1" source="FdLYJ41Y6fqoRRBc2pLX-58" target="FdLYJ41Y6fqoRRBc2pLX-13">
          <mxGeometry relative="1" as="geometry" />
        </mxCell>
        <mxCell id="FdLYJ41Y6fqoRRBc2pLX-60" style="edgeStyle=none;rounded=0;orthogonalLoop=1;jettySize=auto;html=1;exitX=0.5;exitY=1;exitDx=0;exitDy=0;" edge="1" parent="1" source="FdLYJ41Y6fqoRRBc2pLX-58" target="FdLYJ41Y6fqoRRBc2pLX-51">
          <mxGeometry relative="1" as="geometry" />
        </mxCell>
        <mxCell id="FdLYJ41Y6fqoRRBc2pLX-58" value="insegnare" style="rhombus;whiteSpace=wrap;html=1;fillColor=light-dark(#FFFFFF,#3399FF);" vertex="1" parent="1">
          <mxGeometry x="300" y="830" width="180" height="100" as="geometry" />
        </mxCell>
        <mxCell id="FdLYJ41Y6fqoRRBc2pLX-76" style="edgeStyle=none;rounded=0;orthogonalLoop=1;jettySize=auto;html=1;exitX=0.25;exitY=0;exitDx=0;exitDy=0;" edge="1" parent="1" source="FdLYJ41Y6fqoRRBc2pLX-61" target="FdLYJ41Y6fqoRRBc2pLX-74">
          <mxGeometry relative="1" as="geometry" />
        </mxCell>
        <mxCell id="FdLYJ41Y6fqoRRBc2pLX-61" value="sede" style="rounded=0;whiteSpace=wrap;html=1;" vertex="1" parent="1">
          <mxGeometry x="835" y="590" width="170" height="55" as="geometry" />
        </mxCell>
        <mxCell id="FdLYJ41Y6fqoRRBc2pLX-68" style="edgeStyle=none;rounded=0;orthogonalLoop=1;jettySize=auto;html=1;exitX=0;exitY=0.5;exitDx=0;exitDy=0;" edge="1" parent="1" source="FdLYJ41Y6fqoRRBc2pLX-64" target="FdLYJ41Y6fqoRRBc2pLX-61">
          <mxGeometry relative="1" as="geometry" />
        </mxCell>
        <mxCell id="FdLYJ41Y6fqoRRBc2pLX-64" value="nome sede" style="ellipse;whiteSpace=wrap;html=1;align=center;fillColor=#60a917;fontColor=#ffffff;strokeColor=#2D7600;" vertex="1" parent="1">
          <mxGeometry x="1067" y="585" width="110" height="50" as="geometry" />
        </mxCell>
        <mxCell id="FdLYJ41Y6fqoRRBc2pLX-67" style="edgeStyle=none;rounded=0;orthogonalLoop=1;jettySize=auto;html=1;exitX=0;exitY=0;exitDx=0;exitDy=0;entryX=0.75;entryY=1;entryDx=0;entryDy=0;" edge="1" parent="1" source="FdLYJ41Y6fqoRRBc2pLX-65" target="FdLYJ41Y6fqoRRBc2pLX-61">
          <mxGeometry relative="1" as="geometry" />
        </mxCell>
        <mxCell id="FdLYJ41Y6fqoRRBc2pLX-65" value="indirizzo" style="ellipse;whiteSpace=wrap;html=1;align=center;fillColor=#60a917;fontColor=#ffffff;strokeColor=#2D7600;" vertex="1" parent="1">
          <mxGeometry x="1107" y="710" width="110" height="50" as="geometry" />
        </mxCell>
        <mxCell id="FdLYJ41Y6fqoRRBc2pLX-66" style="edgeStyle=none;rounded=0;orthogonalLoop=1;jettySize=auto;html=1;exitX=0.5;exitY=1;exitDx=0;exitDy=0;" edge="1" parent="1" source="FdLYJ41Y6fqoRRBc2pLX-64" target="FdLYJ41Y6fqoRRBc2pLX-64">
          <mxGeometry relative="1" as="geometry" />
        </mxCell>
        <mxCell id="FdLYJ41Y6fqoRRBc2pLX-69" style="rounded=0;orthogonalLoop=1;jettySize=auto;html=1;exitX=0;exitY=1;exitDx=0;exitDy=0;" edge="1" parent="1" source="FdLYJ41Y6fqoRRBc2pLX-64" target="FdLYJ41Y6fqoRRBc2pLX-64">
          <mxGeometry relative="1" as="geometry" />
        </mxCell>
        <mxCell id="FdLYJ41Y6fqoRRBc2pLX-71" value="" style="endArrow=none;html=1;rounded=0;" edge="1" parent="1">
          <mxGeometry relative="1" as="geometry">
            <mxPoint x="997" y="800" as="sourcePoint" />
            <mxPoint x="1067" y="530" as="targetPoint" />
          </mxGeometry>
        </mxCell>
        <mxCell id="FdLYJ41Y6fqoRRBc2pLX-75" style="edgeStyle=none;rounded=0;orthogonalLoop=1;jettySize=auto;html=1;exitX=0.5;exitY=0;exitDx=0;exitDy=0;entryX=0.25;entryY=1;entryDx=0;entryDy=0;" edge="1" parent="1" source="FdLYJ41Y6fqoRRBc2pLX-74" target="FdLYJ41Y6fqoRRBc2pLX-41">
          <mxGeometry relative="1" as="geometry" />
        </mxCell>
        <mxCell id="FdLYJ41Y6fqoRRBc2pLX-74" value="si svolge" style="rhombus;whiteSpace=wrap;html=1;fillColor=light-dark(#FFFFFF,#007FFF);" vertex="1" parent="1">
          <mxGeometry x="815" y="455" width="190" height="80" as="geometry" />
        </mxCell>
        <mxCell id="FdLYJ41Y6fqoRRBc2pLX-78" style="edgeStyle=none;rounded=0;orthogonalLoop=1;jettySize=auto;html=1;exitX=1;exitY=0.5;exitDx=0;exitDy=0;entryX=0;entryY=0.5;entryDx=0;entryDy=0;" edge="1" parent="1" source="FdLYJ41Y6fqoRRBc2pLX-77" target="FdLYJ41Y6fqoRRBc2pLX-30">
          <mxGeometry relative="1" as="geometry" />
        </mxCell>
        <mxCell id="FdLYJ41Y6fqoRRBc2pLX-77" value="voti" style="ellipse;whiteSpace=wrap;html=1;align=center;" vertex="1" parent="1">
          <mxGeometry x="90" y="405" width="110" height="50" as="geometry" />
        </mxCell>
        <mxCell id="FdLYJ41Y6fqoRRBc2pLX-79" style="edgeStyle=none;rounded=0;orthogonalLoop=1;jettySize=auto;html=1;exitX=0.5;exitY=1;exitDx=0;exitDy=0;" edge="1" parent="1" source="FdLYJ41Y6fqoRRBc2pLX-14" target="FdLYJ41Y6fqoRRBc2pLX-14">
          <mxGeometry relative="1" as="geometry" />
        </mxCell>
        <mxCell id="FdLYJ41Y6fqoRRBc2pLX-85" value="(relazione cardinalità 1,n)" style="text;strokeColor=none;fillColor=none;spacingLeft=4;spacingRight=4;overflow=hidden;rotatable=0;points=[[0,0.5],[1,0.5]];portConstraint=eastwest;fontSize=12;whiteSpace=wrap;html=1;" vertex="1" parent="1">
          <mxGeometry x="897" y="540" width="170" height="30" as="geometry" />
        </mxCell>
        <mxCell id="FdLYJ41Y6fqoRRBc2pLX-87" value="(1,n)" style="text;strokeColor=none;fillColor=none;spacingLeft=4;spacingRight=4;overflow=hidden;rotatable=0;points=[[0,0.5],[1,0.5]];portConstraint=eastwest;fontSize=12;whiteSpace=wrap;html=1;" vertex="1" parent="1">
          <mxGeometry x="890" y="460" width="40" height="30" as="geometry" />
        </mxCell>
        <mxCell id="FdLYJ41Y6fqoRRBc2pLX-88" style="edgeStyle=none;rounded=0;orthogonalLoop=1;jettySize=auto;html=1;exitX=0.5;exitY=0;exitDx=0;exitDy=0;entryX=0.015;entryY=0.672;entryDx=0;entryDy=0;entryPerimeter=0;" edge="1" parent="1" source="FdLYJ41Y6fqoRRBc2pLX-49" target="FdLYJ41Y6fqoRRBc2pLX-41">
          <mxGeometry relative="1" as="geometry">
            <Array as="points">
              <mxPoint x="790" y="720" />
              <mxPoint x="770" y="540" />
            </Array>
          </mxGeometry>
        </mxCell>
        <mxCell id="FdLYJ41Y6fqoRRBc2pLX-89" value="(1,1)" style="text;strokeColor=none;fillColor=none;spacingLeft=4;spacingRight=4;overflow=hidden;rotatable=0;points=[[0,0.5],[1,0.5]];portConstraint=eastwest;fontSize=12;whiteSpace=wrap;html=1;" vertex="1" parent="1">
          <mxGeometry x="805" y="690" width="40" height="30" as="geometry" />
        </mxCell>
        <mxCell id="FdLYJ41Y6fqoRRBc2pLX-90" value="(1,1)" style="text;strokeColor=none;fillColor=none;spacingLeft=4;spacingRight=4;overflow=hidden;rotatable=0;points=[[0,0.5],[1,0.5]];portConstraint=eastwest;fontSize=12;whiteSpace=wrap;html=1;" vertex="1" parent="1">
          <mxGeometry x="857" y="850" width="40" height="30" as="geometry" />
        </mxCell>
        <mxCell id="FdLYJ41Y6fqoRRBc2pLX-91" value="(1,1)" style="text;strokeColor=none;fillColor=none;spacingLeft=4;spacingRight=4;overflow=hidden;rotatable=0;points=[[0,0.5],[1,0.5]];portConstraint=eastwest;fontSize=12;whiteSpace=wrap;html=1;" vertex="1" parent="1">
          <mxGeometry x="765" y="550" width="40" height="30" as="geometry" />
        </mxCell>
        <mxCell id="FdLYJ41Y6fqoRRBc2pLX-92" value="(n,n)" style="text;strokeColor=none;fillColor=none;spacingLeft=4;spacingRight=4;overflow=hidden;rotatable=0;points=[[0,0.5],[1,0.5]];portConstraint=eastwest;fontSize=12;whiteSpace=wrap;html=1;" vertex="1" parent="1">
          <mxGeometry x="765" y="360" width="40" height="30" as="geometry" />
        </mxCell>
        <mxCell id="FdLYJ41Y6fqoRRBc2pLX-93" value="(1,1)" style="text;strokeColor=none;fillColor=none;spacingLeft=4;spacingRight=4;overflow=hidden;rotatable=0;points=[[0,0.5],[1,0.5]];portConstraint=eastwest;fontSize=12;whiteSpace=wrap;html=1;" vertex="1" parent="1">
          <mxGeometry x="470" y="350" width="40" height="30" as="geometry" />
        </mxCell>
        <mxCell id="FdLYJ41Y6fqoRRBc2pLX-94" value="(1,n)" style="text;strokeColor=none;fillColor=none;spacingLeft=4;spacingRight=4;overflow=hidden;rotatable=0;points=[[0,0.5],[1,0.5]];portConstraint=eastwest;fontSize=12;whiteSpace=wrap;html=1;" vertex="1" parent="1">
          <mxGeometry x="585" y="400" width="40" height="30" as="geometry" />
        </mxCell>
        <mxCell id="FdLYJ41Y6fqoRRBc2pLX-95" value="(1,n)" style="text;strokeColor=none;fillColor=none;spacingLeft=4;spacingRight=4;overflow=hidden;rotatable=0;points=[[0,0.5],[1,0.5]];portConstraint=eastwest;fontSize=12;whiteSpace=wrap;html=1;" vertex="1" parent="1">
          <mxGeometry x="440" y="790" width="40" height="30" as="geometry" />
        </mxCell>
        <mxCell id="FdLYJ41Y6fqoRRBc2pLX-96" value="(1,n)" style="text;strokeColor=none;fillColor=none;spacingLeft=4;spacingRight=4;overflow=hidden;rotatable=0;points=[[0,0.5],[1,0.5]];portConstraint=eastwest;fontSize=12;whiteSpace=wrap;html=1;" vertex="1" parent="1">
          <mxGeometry x="440" y="960" width="40" height="30" as="geometry" />
        </mxCell>
        <mxCell id="FdLYJ41Y6fqoRRBc2pLX-97" value="(n,n)" style="text;strokeColor=none;fillColor=none;spacingLeft=4;spacingRight=4;overflow=hidden;rotatable=0;points=[[0,0.5],[1,0.5]];portConstraint=eastwest;fontSize=12;whiteSpace=wrap;html=1;" vertex="1" parent="1">
          <mxGeometry x="370" y="885" width="40" height="30" as="geometry" />
        </mxCell>
        <mxCell id="FdLYJ41Y6fqoRRBc2pLX-98" value="(0,n)" style="text;strokeColor=none;fillColor=none;spacingLeft=4;spacingRight=4;overflow=hidden;rotatable=0;points=[[0,0.5],[1,0.5]];portConstraint=eastwest;fontSize=12;whiteSpace=wrap;html=1;" vertex="1" parent="1">
          <mxGeometry x="350" y="350" width="40" height="30" as="geometry" />
        </mxCell>
        <mxCell id="FdLYJ41Y6fqoRRBc2pLX-99" value="(n,n)" style="text;strokeColor=none;fillColor=none;spacingLeft=4;spacingRight=4;overflow=hidden;rotatable=0;points=[[0,0.5],[1,0.5]];portConstraint=eastwest;fontSize=12;whiteSpace=wrap;html=1;" vertex="1" parent="1">
          <mxGeometry x="340" y="480" width="40" height="30" as="geometry" />
        </mxCell>
        <mxCell id="FdLYJ41Y6fqoRRBc2pLX-101" value="(n,n)" style="text;strokeColor=none;fillColor=none;spacingLeft=4;spacingRight=4;overflow=hidden;rotatable=0;points=[[0,0.5],[1,0.5]];portConstraint=eastwest;fontSize=12;whiteSpace=wrap;html=1;" vertex="1" parent="1">
          <mxGeometry x="380" y="430" width="40" height="30" as="geometry" />
        </mxCell>
        <mxCell id="FdLYJ41Y6fqoRRBc2pLX-102" value="(1,1)" style="text;strokeColor=none;fillColor=none;spacingLeft=4;spacingRight=4;overflow=hidden;rotatable=0;points=[[0,0.5],[1,0.5]];portConstraint=eastwest;fontSize=12;whiteSpace=wrap;html=1;" vertex="1" parent="1">
          <mxGeometry x="795" y="800" width="40" height="30" as="geometry" />
        </mxCell>
      </root>
    </mxGraphModel>
  </diagram>
</mxfile>
